<svg width="16" height="10" viewBox="0 0 16 10" fill="none" xmlns="http://www.w3.org/2000/svg">
<path fill-rule="evenodd" clip-rule="evenodd" d="M0.855288 0.0261728C0.531439 0.102529 0.237672 0.348198 0.0907723 0.665525C0.0169001 0.825128 0.00390982 0.893529 0.00456716 1.11965C0.00600705 1.62048 -0.294459 1.28223 3.73765 5.32233C6.16949 7.75893 7.36857 8.93923 7.46566 8.99191C7.69238 9.1149 7.96014 9.15812 8.19569 9.10974C8.3033 9.08762 8.45574 9.0346 8.53443 8.99191C8.63153 8.93923 9.83061 7.75893 12.2624 5.32233C16.2949 1.28189 15.9943 1.62026 15.9953 1.11965C15.9957 0.892934 15.9825 0.82447 15.9066 0.658196C15.6438 0.0829237 14.9436 -0.160427 14.37 0.124171C14.2884 0.164604 13.1557 1.27468 11.1224 3.3069L8.00005 6.42755L4.87769 3.3069C2.83641 1.26673 1.71199 0.164855 1.63013 0.12439C1.39186 0.00662966 1.09672 -0.0307656 0.855288 0.0261728Z" fill="black"/>
</svg>
