<svg width="64" height="64" viewBox="0 0 64 64" fill="none" xmlns="http://www.w3.org/2000/svg">
<path fill-rule="evenodd" clip-rule="evenodd" d="M28.0734 0.0512802C21.3599 1.06374 15.8039 3.55899 10.9834 7.72665C5.63648 12.3494 2.01241 18.5363 0.445296 25.7162C-0.148432 28.4368 -0.148432 35.5617 0.445296 38.2823C1.93747 45.1195 5.27096 51.0316 10.1906 55.5664C14.476 59.5166 19.8373 62.2753 25.7173 63.5559C28.4367 64.148 35.5636 64.148 38.283 63.5559C44.6964 62.159 50.1097 59.2215 54.6657 54.6654C59.2216 50.1093 62.1591 44.6959 63.5559 38.2823C64.148 35.5628 64.148 28.4357 63.5559 25.7162C62.1889 19.4393 59.2591 13.9706 54.8876 9.53593C52.2831 6.8937 49.8351 5.06624 46.8364 3.52601C41.7942 0.935838 38.5655 0.131388 32.7855 0.0243529C30.5641 -0.0167111 28.4436 -0.00459364 28.0734 0.0512802ZM33.2354 6.61209C34.7011 7.27808 36.3645 9.31827 37.7224 12.1158C38.775 14.2843 40.0781 18.0472 40.0781 18.9187C40.0781 19.1505 38.4569 19.2088 32.0001 19.2088C25.919 19.2088 23.9222 19.1431 23.9222 18.9427C23.9222 18.3853 24.8934 15.2119 25.5575 13.599C26.9903 10.12 29.0017 7.42282 30.766 6.61478C31.8817 6.10406 32.1164 6.10383 33.2354 6.61209ZM20.0246 10.177C19.5081 11.1982 17.6407 16.7511 17.638 17.2739C17.6374 17.4126 17.5317 17.9047 17.4031 18.3674L17.1695 19.2088H13.4777C11.4472 19.2088 9.78584 19.1496 9.78584 19.0771C9.78584 19.0049 10.3053 18.1939 10.9403 17.2755C12.279 15.339 14.5269 12.9741 16.2931 11.6441C17.6515 10.6213 20.0872 9.11115 20.3787 9.11115C20.4806 9.11115 20.3213 9.5909 20.0246 10.177ZM45.14 9.91291C48.2931 11.8095 51.0587 14.3804 53.06 17.2755C53.695 18.1939 54.2144 19.0049 54.2144 19.0771C54.2144 19.1496 52.5531 19.2088 50.5226 19.2088H46.8308L46.5972 18.3674C46.4686 17.9047 46.3629 17.4126 46.3622 17.2739C46.3595 16.7511 44.4922 11.1982 43.9757 10.177C43.679 9.5909 43.5197 9.11115 43.6216 9.11115C43.7235 9.11115 44.4067 9.47197 45.14 9.91291ZM16.0597 27.7358C15.9282 30.4498 15.9282 33.5487 16.0597 36.2627L16.1631 38.3944L11.6559 38.455L7.14885 38.5158L6.89462 37.5068C6.38212 35.4711 6.1703 32.0834 6.40972 29.7499C6.53672 28.5129 6.75505 27.0467 6.89462 26.4917L7.14885 25.4826L11.6559 25.5435L16.1631 25.604L16.0597 27.7358ZM41.3618 26.1089C41.5835 26.9127 41.5835 37.0858 41.3618 37.8896L41.1915 38.5066H32.0001H22.8088L22.6385 37.8896C22.4168 37.0858 22.4168 26.9127 22.6385 26.1089L22.8088 25.4918H32.0001H41.1915L41.3618 26.1089ZM57.1068 26.4962C57.6182 28.5277 57.8298 31.9171 57.5906 34.2486C57.4636 35.4856 57.2459 36.9498 57.1068 37.5023L56.8539 38.5066H52.4059C49.9596 38.5066 47.919 38.4308 47.8712 38.3384C47.8234 38.2459 47.8721 36.7817 47.9792 35.0847C48.0893 33.3398 48.0893 30.6587 47.9792 28.9138C47.8721 27.217 47.8234 25.7526 47.8712 25.6601C47.919 25.5677 49.9596 25.4918 52.4059 25.4918H56.8539L57.1068 26.4962ZM17.4031 45.6311C17.5317 46.094 17.6374 46.5859 17.638 46.7246C17.6407 47.2474 19.5081 52.8003 20.0246 53.8215C20.3213 54.4078 20.4806 54.8873 20.3787 54.8873C20.0872 54.8873 17.6515 53.3772 16.2931 52.3544C14.5269 51.0244 12.279 48.6595 10.9403 46.723C10.3053 45.8046 9.78584 44.9936 9.78584 44.9214C9.78584 44.8489 11.4472 44.7897 13.4777 44.7897H17.1695L17.4031 45.6311ZM40.0781 45.0798C40.0781 45.9531 38.7739 49.7164 37.7166 51.8944C36.2743 54.8656 34.5712 56.8835 32.9991 57.484C32.0589 57.843 31.9413 57.843 31.0012 57.484C29.4291 56.8835 27.726 54.8656 26.2837 51.8944C25.2264 49.7164 23.9222 45.9531 23.9222 45.0798C23.9222 44.848 25.5434 44.7897 32.0001 44.7897C38.4569 44.7897 40.0781 44.848 40.0781 45.0798ZM54.2144 44.9214C54.2144 44.9936 53.695 45.8046 53.06 46.723C51.7213 48.6595 49.4734 51.0244 47.7072 52.3544C46.3488 53.3772 43.9131 54.8873 43.6216 54.8873C43.5197 54.8873 43.679 54.4078 43.9757 53.8215C44.4922 52.8003 46.3595 47.2474 46.3622 46.7246C46.3629 46.5859 46.4686 46.094 46.5972 45.6311L46.8308 44.7897H50.5226C52.5531 44.7897 54.2144 44.8489 54.2144 44.9214Z" fill="#FFCA64"/>
</svg>
