<svg width="16" height="16" viewBox="0 0 16 16" fill="none" xmlns="http://www.w3.org/2000/svg">
<path d="M16 8C16 12.4183 12.4183 16 8 16C3.58172 16 0 12.4183 0 8C0 3.58172 3.58172 0 8 0C12.4183 0 16 3.58172 16 8Z" fill="#FFCA64"/>
<path fill-rule="evenodd" clip-rule="evenodd" d="M13.614 13.6994C15.0869 12.2484 16 10.2309 16 8C16 3.58172 12.4183 0 8 0C3.58172 0 0 3.58172 0 8C0 10.1972 0.885806 12.1876 2.31979 13.6334C2.31495 13.5375 2.3125 13.4409 2.3125 13.3438C2.3125 10.2199 4.84489 7.6875 7.96875 7.6875C11.0926 7.6875 13.625 10.2199 13.625 13.3438C13.625 13.4632 13.6213 13.5818 13.614 13.6994ZM10.75 4.4375C10.75 5.95628 9.51878 7.1875 8 7.1875C6.48122 7.1875 5.25 5.95628 5.25 4.4375C5.25 2.91872 6.48122 1.6875 8 1.6875C9.51878 1.6875 10.75 2.91872 10.75 4.4375Z" fill="#1D1E20"/>
</svg>
