<svg width="24" height="25" viewBox="0 0 24 25" fill="none" xmlns="http://www.w3.org/2000/svg">
<path fill-rule="evenodd" clip-rule="evenodd" d="M11.8508 3.8825C5.81944 6.01476 0.760911 7.80667 0.60958 7.8645C0.253067 8.00077 0.039287 8.27602 0.00390705 8.64425C-0.0266825 8.96278 0.125457 9.32645 0.3513 9.47443C0.511866 9.57959 9.02776 13.5578 9.0924 13.5578C9.11647 13.5578 10.1235 12.5727 11.3303 11.3687C13.2557 9.44783 13.5514 9.17471 13.7434 9.1398C14.2006 9.05657 14.7732 9.4525 14.8593 9.91134C14.9405 10.3443 14.8917 10.4044 12.6025 12.6918C11.4113 13.882 10.4367 14.8768 10.4367 14.9025C10.4367 14.9684 14.4139 23.4811 14.5213 23.6451C14.6476 23.8378 15.0078 24.0045 15.298 24.0045C15.6234 24.0045 15.9284 23.7977 16.0823 23.4727C16.1467 23.3366 17.9546 18.2495 20.0997 12.168C22.7821 4.56355 24 1.03825 24 0.878606C24 0.418551 23.5527 -0.00970212 23.0824 0.00016733C22.8878 0.00420745 19.8882 1.04108 11.8508 3.8825Z" fill="#FFCA64"/>
</svg>
