<svg width="256" height="256" viewBox="0 0 256 256" fill="none" xmlns="http://www.w3.org/2000/svg">
<path d="M256 128C256 198.692 198.692 256 128 256C57.3075 256 0 198.692 0 128C0 57.3075 57.3075 0 128 0C198.692 0 256 57.3075 256 128Z" fill="#1D1E20"/>
<path fill-rule="evenodd" clip-rule="evenodd" d="M37.1166 218.134C37.0392 216.599 37 215.054 37 213.5C37 163.518 77.5182 123 127.5 123C177.482 123 218 163.518 218 213.5C218 215.411 217.941 217.308 217.824 219.19C241.39 195.975 256 163.694 256 128C256 57.3075 198.692 0 128 0C57.3075 0 0 57.3075 0 128C0 163.156 14.1729 195.001 37.1166 218.134ZM172 71C172 95.3005 152.301 115 128 115C103.699 115 84 95.3005 84 71C84 46.6995 103.699 27 128 27C152.301 27 172 46.6995 172 71Z" fill="#FFCA64"/>
</svg>
